# xmcd
#
# Track frame offsets:
# 150
# 14694
# 28293
# 40768
# 55417
# 67982
# 84022
# 98987
# 112912
# 125116
# 136691
# 148359
# 160232
# 172123
# 184022
# 196115
# 207549
# 219851
# 231295
# 245807
# 260411
# 273317
# 286695
# 299328
# 311895
# 322317
#
# Disc length: 4500 seconds
#
#
# Revision: 0
# Processed by: cddbd v1.5.2PL0 Copyright (c) Steve Scherf et al.
# Submitted via: FreeRIP 2.40 
#
DISCID=9411921a
DTITLE=Coquinho - Gravaões 78 RPM
DYEAR=1969
DGENRE=Country
TTITLE0=02 - PAIOZINH E ZÉ TAPERA - NUNCA MAIS
TTITLE1=04 - PAIOZINHO E PATRICIO - AMARGURADA
TTITLE2=06 - PAIOZINHO E PATRICIO - SOMBRA DE MULHER
TTITLE3=08 - CASCATINHA E INHANA - SÓ DEUS SABE
TTITLE4=10 - CASCATINHA E INHANA - QUE BOM SERIA
TTITLE5=12 - CASCATINHA E INHANA - NÃO ME ABANDONES
TTITLE6=14 - CASCATINHA E INHANA - SAUDADE AMARGA
TTITLE7=16 - CASCATINHA E INHANA - CANTAR NÃO É PECADO
TTITLE8=18 - LEONCIO E LEONEL - SAUDADES DE ALGUÉM
TTITLE9=20 - LEONCIO E LEONEL - NUNCA ESQUEÇO DELA
TTITLE10=22 - IRMÃS CAVALCANTE - LUMIÔ LUMIÔ
TTITLE11=24 - IRMÃS CAVALCANTE - PONTAPORÃ
TTITLE12=26 - IRMÃS CAVALCANTE - PIU PIU SABIÁ
TTITLE13=28 - IRMÃS CAVALCANTE - ALÉM DAS FRONTEIRAS
TTITLE14=30 - IRMÃS CAVALCANTE - NOITES DO PARAGUAI
TTITLE15=32 - IRMÃS CAVALCANTE - CUPIDO ME ACERTOU
TTITLE16=34 - IRMÃS CAVALCANTE - RIO GRANDE
TTITLE17=36 - IRMÃS CAVALCANTE - DONA CHIQUINHA
TTITLE18=38 - PAVÃO DO NORTE E MUZAMBINHO - FILHO DA FRONTEIRA
TTITLE19=40 - PAVÃO DO NORTE E MUZAMBINHO - MANOELA
TTITLE20=42 - PRIMAS MIRANDA - ALIANÇA CONTRARIADA
TTITLE21=44 - PRIMAS MIRANDA - GOTINHAS DE SAUDADE
TTITLE22=46 - PRIMAS MIRANDA - O ADEUS DO MEU BEM
TTITLE23=48 - PRIMAS MIRANDA - LUAR DE AQUIDAUANA
TTITLE24=50 - PRIMAS MIRANDA - COISAS DO DESTINO
TTITLE25=52 - PRIMAS MIRANDA - FAZ UM ANO
EXTD=
EXTT0=
EXTT1=
EXTT2=
EXTT3=
EXTT4=
EXTT5=
EXTT6=
EXTT7=
EXTT8=
EXTT9=
EXTT10=
EXTT11=
EXTT12=
EXTT13=
EXTT14=
EXTT15=
EXTT16=
EXTT17=
EXTT18=
EXTT19=
EXTT20=
EXTT21=
EXTT22=
EXTT23=
EXTT24=
EXTT25=
PLAYORDER=
